<mxfile modified="2024-03-20T22:48:01.801Z" host="app.diagrams.net" agent="Mozilla/5.0 (Macintosh; Intel Mac OS X 10_15_7) AppleWebKit/537.36 (KHTML, like Gecko) Chrome/122.0.0.0 Safari/537.36" etag="Vj6aB3h5BNJrJDR8zX5W" version="24.0.7" type="github">
  <diagram id="Ht1M8jgEwFfnCIfOTk4-" name="Page-1">
    <mxGraphModel dx="1272" dy="707" grid="1" gridSize="10" guides="1" tooltips="1" connect="1" arrows="1" fold="1" page="1" pageScale="1" pageWidth="1169" pageHeight="827" math="0" shadow="0">
      <root>
        <mxCell id="0" />
        <mxCell id="1" parent="0" />
        <mxCell id="UEzPUAAOIrF-is8g5C7q-126" style="edgeStyle=orthogonalEdgeStyle;rounded=0;orthogonalLoop=1;jettySize=auto;html=1;startArrow=open;startFill=0;endArrow=open;endFill=0;strokeWidth=2;strokeColor=#808080;exitX=0;exitY=0.5;exitDx=0;exitDy=0;exitPerimeter=0;entryX=1;entryY=0.5;entryDx=0;entryDy=0;entryPerimeter=0;" parent="1" source="3U9PdE0J9rPkg1rEyyzg-19" target="3U9PdE0J9rPkg1rEyyzg-25" edge="1">
          <mxGeometry relative="1" as="geometry">
            <mxPoint x="630" y="474.92" as="sourcePoint" />
            <mxPoint x="600" y="444.92" as="targetPoint" />
            <Array as="points" />
          </mxGeometry>
        </mxCell>
        <mxCell id="UEzPUAAOIrF-is8g5C7q-136" style="edgeStyle=orthogonalEdgeStyle;rounded=0;orthogonalLoop=1;jettySize=auto;html=1;startArrow=open;startFill=0;endArrow=none;endFill=0;strokeWidth=2;strokeColor=#808080;entryX=0.5;entryY=0;entryDx=0;entryDy=0;entryPerimeter=0;exitX=0;exitY=1;exitDx=0;exitDy=0;exitPerimeter=0;" parent="1" source="3U9PdE0J9rPkg1rEyyzg-19" target="3U9PdE0J9rPkg1rEyyzg-17" edge="1">
          <mxGeometry relative="1" as="geometry">
            <Array as="points">
              <mxPoint x="680" y="471" />
              <mxPoint x="680" y="565" />
            </Array>
            <mxPoint x="750" y="534.92" as="sourcePoint" />
            <mxPoint x="750" y="544.92" as="targetPoint" />
          </mxGeometry>
        </mxCell>
        <mxCell id="UEzPUAAOIrF-is8g5C7q-137" value="" style="edgeStyle=orthogonalEdgeStyle;rounded=0;orthogonalLoop=1;jettySize=auto;html=1;startArrow=none;startFill=0;endArrow=open;endFill=0;strokeWidth=2;strokeColor=#808080;" parent="1" source="UEzPUAAOIrF-is8g5C7q-117" edge="1">
          <mxGeometry relative="1" as="geometry">
            <mxPoint x="930.5" y="162.5000000000001" as="targetPoint" />
          </mxGeometry>
        </mxCell>
        <mxCell id="3U9PdE0J9rPkg1rEyyzg-1" value="" style="edgeStyle=orthogonalEdgeStyle;rounded=0;orthogonalLoop=1;jettySize=auto;html=1;" edge="1" parent="1" source="UEzPUAAOIrF-is8g5C7q-119">
          <mxGeometry relative="1" as="geometry">
            <mxPoint x="839.5000000000002" y="201.5" as="targetPoint" />
          </mxGeometry>
        </mxCell>
        <mxCell id="3U9PdE0J9rPkg1rEyyzg-2" value="Amazon CloudFront" style="outlineConnect=0;dashed=0;verticalLabelPosition=bottom;verticalAlign=top;align=center;html=1;shape=mxgraph.aws3.cloudfront;fillColor=#F58536;gradientColor=none;" vertex="1" parent="1">
          <mxGeometry x="210" y="378.92" width="76.5" height="93" as="geometry" />
        </mxCell>
        <mxCell id="3U9PdE0J9rPkg1rEyyzg-8" style="edgeStyle=orthogonalEdgeStyle;rounded=0;orthogonalLoop=1;jettySize=auto;html=1;startArrow=open;startFill=0;endArrow=open;endFill=0;strokeWidth=2;strokeColor=#808080;exitX=0;exitY=0.5;exitDx=0;exitDy=0;exitPerimeter=0;" edge="1" parent="1" source="3U9PdE0J9rPkg1rEyyzg-25" target="3U9PdE0J9rPkg1rEyyzg-2">
          <mxGeometry relative="1" as="geometry">
            <mxPoint x="480" y="434.96761904761894" as="sourcePoint" />
            <mxPoint x="310" y="424.92" as="targetPoint" />
            <Array as="points">
              <mxPoint x="390" y="432.92" />
              <mxPoint x="390" y="432.92" />
            </Array>
          </mxGeometry>
        </mxCell>
        <mxCell id="3U9PdE0J9rPkg1rEyyzg-10" style="edgeStyle=orthogonalEdgeStyle;rounded=0;orthogonalLoop=1;jettySize=auto;html=1;startArrow=open;startFill=0;endArrow=none;endFill=0;strokeWidth=2;strokeColor=#808080;exitX=0.008;exitY=0.542;exitDx=0;exitDy=0;exitPerimeter=0;entryX=0.5;entryY=0;entryDx=0;entryDy=0;entryPerimeter=0;" edge="1" parent="1" source="3U9PdE0J9rPkg1rEyyzg-3" target="3U9PdE0J9rPkg1rEyyzg-25">
          <mxGeometry relative="1" as="geometry">
            <mxPoint x="606.25" y="214.92000000000002" as="sourcePoint" />
            <mxPoint x="560" y="404.92" as="targetPoint" />
            <Array as="points">
              <mxPoint x="519" y="293" />
            </Array>
          </mxGeometry>
        </mxCell>
        <mxCell id="3U9PdE0J9rPkg1rEyyzg-12" style="edgeStyle=orthogonalEdgeStyle;rounded=0;orthogonalLoop=1;jettySize=auto;html=1;startArrow=none;startFill=0;endArrow=open;endFill=0;strokeWidth=2;strokeColor=#808080;entryX=0.441;entryY=0.015;entryDx=0;entryDy=0;entryPerimeter=0;exitX=0.58;exitY=0;exitDx=0;exitDy=0;exitPerimeter=0;" edge="1" parent="1" source="3U9PdE0J9rPkg1rEyyzg-3" target="3U9PdE0J9rPkg1rEyyzg-21">
          <mxGeometry relative="1" as="geometry">
            <mxPoint x="598" y="204.92000000000002" as="sourcePoint" />
            <mxPoint x="91" y="380.48309608576614" as="targetPoint" />
            <Array as="points">
              <mxPoint x="630" y="185" />
              <mxPoint x="91" y="185" />
            </Array>
          </mxGeometry>
        </mxCell>
        <mxCell id="3U9PdE0J9rPkg1rEyyzg-14" style="edgeStyle=orthogonalEdgeStyle;rounded=0;orthogonalLoop=1;jettySize=auto;html=1;startArrow=open;startFill=0;endArrow=open;endFill=0;strokeWidth=2;strokeColor=#808080;exitX=0;exitY=0.5;exitDx=0;exitDy=0;exitPerimeter=0;" edge="1" parent="1" source="3U9PdE0J9rPkg1rEyyzg-15" target="3U9PdE0J9rPkg1rEyyzg-2">
          <mxGeometry relative="1" as="geometry">
            <mxPoint x="317" y="284.92" as="sourcePoint" />
            <mxPoint x="324" y="412.42" as="targetPoint" />
            <Array as="points">
              <mxPoint x="320" y="280.92" />
              <mxPoint x="320" y="413.92" />
            </Array>
          </mxGeometry>
        </mxCell>
        <mxCell id="3U9PdE0J9rPkg1rEyyzg-15" value="S3" style="sketch=0;points=[[0,0,0],[0.25,0,0],[0.5,0,0],[0.75,0,0],[1,0,0],[0,1,0],[0.25,1,0],[0.5,1,0],[0.75,1,0],[1,1,0],[0,0.25,0],[0,0.5,0],[0,0.75,0],[1,0.25,0],[1,0.5,0],[1,0.75,0]];outlineConnect=0;fontColor=#232F3E;fillColor=#7AA116;strokeColor=#ffffff;dashed=0;verticalLabelPosition=bottom;verticalAlign=top;align=center;html=1;fontSize=12;fontStyle=0;aspect=fixed;shape=mxgraph.aws4.resourceIcon;resIcon=mxgraph.aws4.s3;" vertex="1" parent="1">
          <mxGeometry x="340" y="242.42000000000002" width="78" height="78" as="geometry" />
        </mxCell>
        <mxCell id="3U9PdE0J9rPkg1rEyyzg-16" value="Amazon RDS" style="outlineConnect=0;dashed=0;verticalLabelPosition=bottom;verticalAlign=top;align=center;html=1;shape=mxgraph.aws3.rds;fillColor=#2E73B8;gradientColor=none;" vertex="1" parent="1">
          <mxGeometry x="1010" y="391.67" width="72" height="81" as="geometry" />
        </mxCell>
        <mxCell id="3U9PdE0J9rPkg1rEyyzg-17" value="Cloudwatch" style="sketch=0;points=[[0,0,0],[0.25,0,0],[0.5,0,0],[0.75,0,0],[1,0,0],[0,1,0],[0.25,1,0],[0.5,1,0],[0.75,1,0],[1,1,0],[0,0.25,0],[0,0.5,0],[0,0.75,0],[1,0.25,0],[1,0.5,0],[1,0.75,0]];points=[[0,0,0],[0.25,0,0],[0.5,0,0],[0.75,0,0],[1,0,0],[0,1,0],[0.25,1,0],[0.5,1,0],[0.75,1,0],[1,1,0],[0,0.25,0],[0,0.5,0],[0,0.75,0],[1,0.25,0],[1,0.5,0],[1,0.75,0]];outlineConnect=0;fontColor=#232F3E;fillColor=#E7157B;strokeColor=#ffffff;dashed=0;verticalLabelPosition=bottom;verticalAlign=top;align=center;html=1;fontSize=12;fontStyle=0;aspect=fixed;shape=mxgraph.aws4.resourceIcon;resIcon=mxgraph.aws4.cloudwatch_2;" vertex="1" parent="1">
          <mxGeometry x="640" y="564.92" width="78" height="78" as="geometry" />
        </mxCell>
        <mxCell id="3U9PdE0J9rPkg1rEyyzg-19" value="Lambda&lt;div&gt;&lt;br&gt;&lt;/div&gt;" style="sketch=0;points=[[0,0,0],[0.25,0,0],[0.5,0,0],[0.75,0,0],[1,0,0],[0,1,0],[0.25,1,0],[0.5,1,0],[0.75,1,0],[1,1,0],[0,0.25,0],[0,0.5,0],[0,0.75,0],[1,0.25,0],[1,0.5,0],[1,0.75,0]];outlineConnect=0;fontColor=#232F3E;fillColor=#ED7100;strokeColor=#ffffff;dashed=0;verticalLabelPosition=bottom;verticalAlign=top;align=center;html=1;fontSize=12;fontStyle=0;aspect=fixed;shape=mxgraph.aws4.resourceIcon;resIcon=mxgraph.aws4.lambda;" vertex="1" parent="1">
          <mxGeometry x="819.25" y="393.17" width="78" height="78" as="geometry" />
        </mxCell>
        <mxCell id="3U9PdE0J9rPkg1rEyyzg-20" style="edgeStyle=orthogonalEdgeStyle;rounded=0;orthogonalLoop=1;jettySize=auto;html=1;startArrow=open;startFill=0;endArrow=open;endFill=0;strokeWidth=2;strokeColor=#808080;exitX=0;exitY=0.5;exitDx=0;exitDy=0;exitPerimeter=0;entryX=0.981;entryY=0.504;entryDx=0;entryDy=0;entryPerimeter=0;" edge="1" parent="1" source="3U9PdE0J9rPkg1rEyyzg-2" target="3U9PdE0J9rPkg1rEyyzg-21">
          <mxGeometry relative="1" as="geometry">
            <mxPoint x="393" y="574.92" as="sourcePoint" />
            <mxPoint x="150" y="504.92" as="targetPoint" />
            <Array as="points">
              <mxPoint x="160" y="424.92" />
              <mxPoint x="109" y="424.92" />
            </Array>
          </mxGeometry>
        </mxCell>
        <mxCell id="3U9PdE0J9rPkg1rEyyzg-21" value="" style="verticalLabelPosition=bottom;verticalAlign=top;html=1;shadow=0;dashed=0;strokeWidth=2;shape=mxgraph.android.phone2;strokeColor=#767474;" vertex="1" parent="1">
          <mxGeometry x="40" y="365.42" width="70.5" height="120" as="geometry" />
        </mxCell>
        <mxCell id="3U9PdE0J9rPkg1rEyyzg-22" style="edgeStyle=orthogonalEdgeStyle;rounded=0;orthogonalLoop=1;jettySize=auto;html=1;startArrow=open;startFill=0;endArrow=open;endFill=0;strokeWidth=2;strokeColor=#808080;entryX=1;entryY=0.5;entryDx=0;entryDy=0;entryPerimeter=0;exitX=0;exitY=0.5;exitDx=0;exitDy=0;exitPerimeter=0;" edge="1" parent="1" source="3U9PdE0J9rPkg1rEyyzg-16" target="3U9PdE0J9rPkg1rEyyzg-19">
          <mxGeometry relative="1" as="geometry">
            <mxPoint x="960" y="464.92" as="sourcePoint" />
            <mxPoint x="910" y="441.92" as="targetPoint" />
            <Array as="points" />
          </mxGeometry>
        </mxCell>
        <mxCell id="3U9PdE0J9rPkg1rEyyzg-23" style="edgeStyle=orthogonalEdgeStyle;rounded=0;orthogonalLoop=1;jettySize=auto;html=1;startArrow=open;startFill=0;endArrow=open;endFill=0;strokeWidth=2;strokeColor=#808080;exitX=1;exitY=0.75;exitDx=0;exitDy=0;exitPerimeter=0;entryX=0.5;entryY=0;entryDx=0;entryDy=0;entryPerimeter=0;" edge="1" parent="1" source="3U9PdE0J9rPkg1rEyyzg-25" target="3U9PdE0J9rPkg1rEyyzg-26">
          <mxGeometry relative="1" as="geometry">
            <mxPoint x="610" y="464.92" as="sourcePoint" />
            <mxPoint x="570" y="514.92" as="targetPoint" />
            <Array as="points">
              <mxPoint x="579" y="452" />
            </Array>
          </mxGeometry>
        </mxCell>
        <mxCell id="3U9PdE0J9rPkg1rEyyzg-24" style="edgeStyle=orthogonalEdgeStyle;rounded=0;orthogonalLoop=1;jettySize=auto;html=1;startArrow=open;startFill=0;endArrow=open;endFill=0;strokeWidth=2;strokeColor=#808080;entryX=0;entryY=0.75;entryDx=0;entryDy=0;entryPerimeter=0;exitX=0.75;exitY=0;exitDx=0;exitDy=0;exitPerimeter=0;" edge="1" parent="1" source="3U9PdE0J9rPkg1rEyyzg-26" target="3U9PdE0J9rPkg1rEyyzg-19">
          <mxGeometry relative="1" as="geometry">
            <mxPoint x="630" y="534.92" as="sourcePoint" />
            <mxPoint x="580" y="524.92" as="targetPoint" />
            <Array as="points" />
          </mxGeometry>
        </mxCell>
        <mxCell id="3U9PdE0J9rPkg1rEyyzg-25" value="API Gateway" style="sketch=0;points=[[0,0,0],[0.25,0,0],[0.5,0,0],[0.75,0,0],[1,0,0],[0,1,0],[0.25,1,0],[0.5,1,0],[0.75,1,0],[1,1,0],[0,0.25,0],[0,0.5,0],[0,0.75,0],[1,0.25,0],[1,0.5,0],[1,0.75,0]];outlineConnect=0;fontColor=#232F3E;fillColor=#8C4FFF;strokeColor=#ffffff;dashed=0;verticalLabelPosition=bottom;verticalAlign=top;align=center;html=1;fontSize=12;fontStyle=0;aspect=fixed;shape=mxgraph.aws4.resourceIcon;resIcon=mxgraph.aws4.api_gateway;" vertex="1" parent="1">
          <mxGeometry x="480" y="393.92" width="78" height="78" as="geometry" />
        </mxCell>
        <mxCell id="3U9PdE0J9rPkg1rEyyzg-26" value="Cognito" style="sketch=0;points=[[0,0,0],[0.25,0,0],[0.5,0,0],[0.75,0,0],[1,0,0],[0,1,0],[0.25,1,0],[0.5,1,0],[0.75,1,0],[1,1,0],[0,0.25,0],[0,0.5,0],[0,0.75,0],[1,0.25,0],[1,0.5,0],[1,0.75,0]];outlineConnect=0;fontColor=#232F3E;fillColor=#DD344C;strokeColor=#ffffff;dashed=0;verticalLabelPosition=bottom;verticalAlign=top;align=center;html=1;fontSize=12;fontStyle=0;aspect=fixed;shape=mxgraph.aws4.resourceIcon;resIcon=mxgraph.aws4.cognito;" vertex="1" parent="1">
          <mxGeometry x="540" y="564.92" width="78" height="78" as="geometry" />
        </mxCell>
        <mxCell id="3U9PdE0J9rPkg1rEyyzg-27" value="Frontend" style="swimlane;whiteSpace=wrap;html=1;" vertex="1" parent="1">
          <mxGeometry x="165" y="204.92000000000002" width="280" height="320" as="geometry" />
        </mxCell>
        <mxCell id="3U9PdE0J9rPkg1rEyyzg-28" value="Backend" style="swimlane;whiteSpace=wrap;html=1;" vertex="1" parent="1">
          <mxGeometry x="770" y="354.92" width="170" height="170" as="geometry" />
        </mxCell>
        <mxCell id="3U9PdE0J9rPkg1rEyyzg-29" value="DB" style="swimlane;whiteSpace=wrap;html=1;" vertex="1" parent="1">
          <mxGeometry x="958" y="354.92" width="170" height="170" as="geometry" />
        </mxCell>
        <mxCell id="3U9PdE0J9rPkg1rEyyzg-30" style="edgeStyle=orthogonalEdgeStyle;rounded=0;orthogonalLoop=1;jettySize=auto;html=1;startArrow=open;startFill=0;endArrow=none;endFill=0;strokeWidth=2;strokeColor=#808080;exitX=1;exitY=0.5;exitDx=0;exitDy=0;exitPerimeter=0;entryX=0;entryY=0.25;entryDx=0;entryDy=0;entryPerimeter=0;" edge="1" parent="1" source="3U9PdE0J9rPkg1rEyyzg-3" target="3U9PdE0J9rPkg1rEyyzg-19">
          <mxGeometry relative="1" as="geometry">
            <mxPoint x="710" y="284.92" as="sourcePoint" />
            <mxPoint x="670" y="403.92" as="targetPoint" />
            <Array as="points">
              <mxPoint x="710" y="289" />
              <mxPoint x="710" y="413" />
            </Array>
          </mxGeometry>
        </mxCell>
        <mxCell id="3U9PdE0J9rPkg1rEyyzg-31" value="Infra" style="swimlane;whiteSpace=wrap;html=1;" vertex="1" parent="1">
          <mxGeometry x="470" y="204.92" width="280" height="475.08" as="geometry" />
        </mxCell>
        <mxCell id="3U9PdE0J9rPkg1rEyyzg-3" value="Amazon SES&lt;div&gt;&lt;br&gt;&lt;/div&gt;" style="outlineConnect=0;dashed=0;verticalLabelPosition=bottom;verticalAlign=top;align=center;html=1;shape=mxgraph.aws3.ses;fillColor=#D9A741;gradientColor=none;" vertex="1" parent="3U9PdE0J9rPkg1rEyyzg-31">
          <mxGeometry x="114" y="37.5" width="79.5" height="93" as="geometry" />
        </mxCell>
        <mxCell id="3U9PdE0J9rPkg1rEyyzg-32" value="IMA Roles&lt;div&gt;&lt;br&gt;&lt;/div&gt;" style="sketch=0;outlineConnect=0;fontColor=#232F3E;gradientColor=none;fillColor=#DD344C;strokeColor=none;dashed=0;verticalLabelPosition=bottom;verticalAlign=top;align=center;html=1;fontSize=12;fontStyle=0;aspect=fixed;pointerEvents=1;shape=mxgraph.aws4.role;" vertex="1" parent="1">
          <mxGeometry x="240" y="571.92" width="120" height="67.7" as="geometry" />
        </mxCell>
        <mxCell id="3U9PdE0J9rPkg1rEyyzg-33" style="edgeStyle=orthogonalEdgeStyle;rounded=0;orthogonalLoop=1;jettySize=auto;html=1;startArrow=open;startFill=0;endArrow=open;endFill=0;strokeWidth=2;strokeColor=#808080;" edge="1" parent="1" target="3U9PdE0J9rPkg1rEyyzg-32">
          <mxGeometry relative="1" as="geometry">
            <mxPoint x="470" y="606" as="sourcePoint" />
            <mxPoint x="360" y="701.0899999999999" as="targetPoint" />
            <Array as="points">
              <mxPoint x="470" y="606" />
            </Array>
          </mxGeometry>
        </mxCell>
      </root>
    </mxGraphModel>
  </diagram>
</mxfile>
